<?xml version="1.0" encoding="utf-8"?>
<!-- Generator: Adobe Illustrator 23.0.0, SVG Export Plug-In . SVG Version: 6.00 Build 0)  -->
<svg version="1.1" id="Capa_1" xmlns="http://www.w3.org/2000/svg" xmlns:xlink="http://www.w3.org/1999/xlink" x="0px" y="0px"
	 viewBox="0 0 240 76" style="enable-background:new 0 0 240 76;" xml:space="preserve">
<style type="text/css">
	.st0{clip-path:url(#SVGID_2_);fill:url(#SVGID_3_);}
	.st1{clip-path:url(#SVGID_5_);fill:url(#SVGID_6_);}
	.st2{clip-path:url(#SVGID_8_);fill:url(#SVGID_9_);}
	.st3{clip-path:url(#SVGID_11_);fill:url(#SVGID_12_);}
	.st4{clip-path:url(#SVGID_14_);fill:url(#SVGID_15_);}
	.st5{clip-path:url(#SVGID_17_);fill:url(#SVGID_18_);}
	.st6{clip-path:url(#SVGID_20_);fill:url(#SVGID_21_);}
	.st7{clip-path:url(#SVGID_23_);fill:url(#SVGID_24_);}
	.st8{clip-path:url(#SVGID_26_);fill:url(#SVGID_27_);}
	.st9{clip-path:url(#SVGID_29_);fill:url(#SVGID_30_);}
	.st10{clip-path:url(#SVGID_32_);fill:url(#SVGID_33_);}
	.st11{clip-path:url(#SVGID_35_);fill:url(#SVGID_36_);}
	.st12{clip-path:url(#SVGID_38_);fill:url(#SVGID_39_);}
	.st13{clip-path:url(#SVGID_41_);fill:url(#SVGID_42_);}
	.st14{clip-path:url(#SVGID_44_);fill:url(#SVGID_45_);}
	.st15{fill:#ffffff;}
</style>
<g>
	<g>
		<g>
			<defs>
				<path id="SVGID_1_" d="M9.91,51.23c-0.15,0-0.27,0.05-0.37,0.15c-0.1,0.1-0.15,0.22-0.15,0.37v11.07c0,0.15,0.05,0.27,0.15,0.37
					c0.1,0.1,0.22,0.15,0.37,0.15h6.35c0.15,0,0.27-0.05,0.37-0.14c0.1-0.09,0.15-0.21,0.15-0.36c0-0.14-0.05-0.26-0.15-0.36
					c-0.1-0.1-0.22-0.16-0.37-0.16h-5.78v-4.7h5c0.15,0,0.27-0.05,0.37-0.14c0.1-0.09,0.15-0.21,0.15-0.36
					c0-0.15-0.05-0.27-0.15-0.37c-0.1-0.1-0.22-0.15-0.37-0.15h-5v-4.34h5.78c0.15,0,0.27-0.05,0.37-0.14
					c0.1-0.09,0.15-0.21,0.15-0.36c0-0.15-0.05-0.27-0.15-0.37c-0.1-0.1-0.22-0.15-0.37-0.15H9.91z"/>
			</defs>
			<clipPath id="SVGID_2_">
				<use xlink:href="#SVGID_1_"  style="overflow:visible;"/>
			</clipPath>
			
				<linearGradient id="SVGID_3_" gradientUnits="userSpaceOnUse" x1="-6744.8379" y1="1783.1078" x2="-6744.2939" y2="1783.1078" gradientTransform="matrix(0.5784 55.5293 55.5293 -0.5784 -95100.3125 375611.25)">
				<stop  offset="0" style="stop-color:#ffffff"/>
				<stop  offset="0.9977" style="stop-color:#ffffff"/>
				<stop  offset="1" style="stop-color:#ffffff"/>
			</linearGradient>
			<polygon class="st0" points="16.78,51.16 16.91,63.34 9.39,63.42 9.27,51.24 			"/>
		</g>
		<g>
			<defs>
				<path id="SVGID_4_" d="M18.09,54.46c-0.09,0.1-0.14,0.22-0.14,0.35c0,0.05,0.01,0.09,0.03,0.14c0.02,0.05,0.03,0.08,0.03,0.1
					l3.41,7.96c0.05,0.11,0.12,0.2,0.21,0.26c0.09,0.06,0.2,0.08,0.31,0.07c0.09,0,0.18-0.03,0.27-0.1c0.09-0.06,0.15-0.14,0.2-0.23
					l3.39-7.96c0.05-0.09,0.07-0.19,0.07-0.29c0-0.13-0.05-0.23-0.16-0.31c-0.1-0.08-0.21-0.12-0.33-0.12
					c-0.12-0.01-0.22,0.01-0.3,0.08c-0.09,0.06-0.15,0.15-0.2,0.25l-2.96,7l-2.94-7c-0.05-0.1-0.11-0.19-0.2-0.25
					c-0.09-0.06-0.18-0.1-0.28-0.1C18.32,54.31,18.19,54.36,18.09,54.46"/>
			</defs>
			<clipPath id="SVGID_5_">
				<use xlink:href="#SVGID_4_"  style="overflow:visible;"/>
			</clipPath>
			
				<linearGradient id="SVGID_6_" gradientUnits="userSpaceOnUse" x1="-6744.8379" y1="1782.9733" x2="-6744.2939" y2="1782.9733" gradientTransform="matrix(0.5784 55.5293 55.5293 -0.5784 -95084.0391 375611.0938)">
				<stop  offset="0" style="stop-color:#ffffff"/>
				<stop  offset="0.9977" style="stop-color:#ffffff"/>
				<stop  offset="1" style="stop-color:#ffffff"/>
			</linearGradient>
			<polygon class="st1" points="25.86,54.23 25.95,63.35 17.96,63.43 17.86,54.31 			"/>
		</g>
		<g>
			<defs>
				<path id="SVGID_7_" d="M29.85,62.07c-0.51-0.32-0.91-0.75-1.2-1.31c-0.29-0.55-0.44-1.17-0.44-1.85c0-0.69,0.15-1.31,0.44-1.87
					c0.29-0.55,0.69-0.99,1.2-1.31c0.51-0.32,1.07-0.48,1.69-0.48s1.19,0.16,1.7,0.48c0.51,0.32,0.91,0.75,1.2,1.31
					c0.29,0.55,0.43,1.18,0.43,1.87c0,0.69-0.14,1.31-0.43,1.87c-0.29,0.55-0.69,0.99-1.2,1.3c-0.51,0.31-1.08,0.47-1.7,0.47
					S30.36,62.39,29.85,62.07 M29.32,54.9c-0.67,0.4-1.19,0.96-1.57,1.66c-0.38,0.7-0.57,1.49-0.57,2.35c0,0.86,0.19,1.65,0.57,2.35
					c0.38,0.7,0.91,1.25,1.57,1.65c0.67,0.4,1.41,0.6,2.23,0.6s1.56-0.2,2.23-0.6c0.67-0.4,1.19-0.95,1.57-1.65
					c0.38-0.7,0.57-1.49,0.57-2.35c0-0.86-0.19-1.65-0.57-2.35c-0.38-0.7-0.91-1.26-1.57-1.66c-0.67-0.4-1.41-0.6-2.23-0.6
					S29.99,54.5,29.32,54.9"/>
			</defs>
			<clipPath id="SVGID_8_">
				<use xlink:href="#SVGID_7_"  style="overflow:visible;"/>
			</clipPath>
			
				<linearGradient id="SVGID_9_" gradientUnits="userSpaceOnUse" x1="-6744.8379" y1="1782.8289" x2="-6744.2939" y2="1782.8289" gradientTransform="matrix(0.5784 55.5293 55.5293 -0.5784 -95066.3828 375610.9063)">
				<stop  offset="0" style="stop-color:#ffffff"/>
				<stop  offset="0.9977" style="stop-color:#ffffff"/>
				<stop  offset="1" style="stop-color:#ffffff"/>
			</linearGradient>
			<polygon class="st2" points="35.92,54.21 36.02,63.51 27.17,63.61 27.08,54.3 			"/>
		</g>
		<g>
			<defs>
				<path id="SVGID_10_" d="M38.3,50.69c-0.1,0.1-0.15,0.22-0.15,0.37v11.76c0,0.15,0.05,0.27,0.15,0.37
					c0.1,0.1,0.22,0.15,0.37,0.15c0.15,0,0.27-0.05,0.37-0.15c0.1-0.1,0.15-0.22,0.15-0.37V51.06c0-0.15-0.05-0.27-0.15-0.37
					c-0.1-0.1-0.22-0.15-0.37-0.15C38.52,50.54,38.4,50.59,38.3,50.69"/>
			</defs>
			<clipPath id="SVGID_11_">
				<use xlink:href="#SVGID_10_"  style="overflow:visible;"/>
			</clipPath>
			
				<linearGradient id="SVGID_12_" gradientUnits="userSpaceOnUse" x1="-6744.8379" y1="1782.7208" x2="-6744.2939" y2="1782.7208" gradientTransform="matrix(0.5784 55.5293 55.5293 -0.5784 -95053.2344 375610.75)">
				<stop  offset="0" style="stop-color:#ffffff"/>
				<stop  offset="0.9977" style="stop-color:#ffffff"/>
				<stop  offset="1" style="stop-color:#ffffff"/>
			</linearGradient>
			<polygon class="st3" points="39.19,50.53 39.33,63.34 38.16,63.35 38.02,50.54 			"/>
		</g>
		<g>
			<defs>
				<path id="SVGID_13_" d="M48.18,54.7c-0.1,0.1-0.15,0.22-0.15,0.37v4.88c0,0.83-0.22,1.46-0.67,1.89
					c-0.44,0.43-1.07,0.65-1.88,0.65c-0.8,0-1.41-0.22-1.85-0.65c-0.44-0.43-0.66-1.06-0.66-1.89v-4.88c0-0.15-0.05-0.27-0.15-0.37
					c-0.1-0.1-0.22-0.15-0.37-0.15c-0.15,0-0.27,0.05-0.37,0.15c-0.1,0.1-0.15,0.22-0.15,0.37v4.88c0,1.13,0.31,2,0.94,2.6
					c0.63,0.6,1.5,0.91,2.6,0.91c1.12,0,1.99-0.3,2.63-0.91c0.63-0.61,0.95-1.47,0.95-2.6v-4.88c0-0.15-0.05-0.27-0.15-0.37
					c-0.1-0.1-0.22-0.15-0.37-0.15S48.28,54.6,48.18,54.7"/>
			</defs>
			<clipPath id="SVGID_14_">
				<use xlink:href="#SVGID_13_"  style="overflow:visible;"/>
			</clipPath>
			
				<linearGradient id="SVGID_15_" gradientUnits="userSpaceOnUse" x1="-6744.8379" y1="1782.6173" x2="-6744.2939" y2="1782.6173" gradientTransform="matrix(0.5784 55.5293 55.5293 -0.5784 -95040.6797 375610.625)">
				<stop  offset="0" style="stop-color:#ffffff"/>
				<stop  offset="0.9977" style="stop-color:#ffffff"/>
				<stop  offset="1" style="stop-color:#ffffff"/>
			</linearGradient>
			<polygon class="st4" points="49.07,54.48 49.16,63.46 41.94,63.54 41.85,54.56 			"/>
		</g>
		<g>
			<defs>
				<path id="SVGID_16_" d="M52.62,52.25c-0.1,0.1-0.15,0.22-0.15,0.37v1.92h-1.26c-0.14,0-0.26,0.05-0.35,0.14
					c-0.1,0.09-0.15,0.21-0.15,0.35c0,0.14,0.05,0.25,0.15,0.35c0.1,0.09,0.22,0.14,0.35,0.14h1.26v5.85c0,0.63,0.11,1.1,0.34,1.38
					c0.23,0.29,0.46,0.46,0.7,0.52c0.24,0.06,0.52,0.09,0.83,0.09c0.25,0,0.47-0.05,0.66-0.16c0.18-0.11,0.28-0.24,0.28-0.41
					c0-0.12-0.04-0.22-0.11-0.3c-0.08-0.09-0.16-0.13-0.27-0.13c-0.06,0-0.14,0.01-0.24,0.04c-0.1,0.03-0.19,0.04-0.26,0.04
					c-0.26,0-0.48-0.08-0.64-0.23c-0.16-0.16-0.24-0.45-0.24-0.89v-5.79h1.73c0.14,0,0.25-0.04,0.35-0.13
					c0.09-0.09,0.14-0.2,0.14-0.34c0-0.13-0.05-0.24-0.15-0.35c-0.1-0.1-0.21-0.16-0.34-0.16h-1.73v-1.92
					c0-0.15-0.05-0.27-0.15-0.37c-0.1-0.1-0.22-0.15-0.37-0.15C52.84,52.1,52.72,52.15,52.62,52.25"/>
			</defs>
			<clipPath id="SVGID_17_">
				<use xlink:href="#SVGID_16_"  style="overflow:visible;"/>
			</clipPath>
			
				<linearGradient id="SVGID_18_" gradientUnits="userSpaceOnUse" x1="-6744.8379" y1="1782.5001" x2="-6744.2939" y2="1782.5001" gradientTransform="matrix(0.5784 55.5293 55.5293 -0.5784 -95026.4453 375610.4688)">
				<stop  offset="0" style="stop-color:#ffffff"/>
				<stop  offset="0.9977" style="stop-color:#ffffff"/>
				<stop  offset="1" style="stop-color:#ffffff"/>
			</linearGradient>
			<polygon class="st5" points="55.73,52.05 55.84,63.34 50.71,63.39 50.59,52.1 			"/>
		</g>
		<g>
			<defs>
				<path id="SVGID_19_" d="M57.76,54.49c-0.1,0.1-0.15,0.22-0.15,0.37v7.96c0,0.15,0.05,0.27,0.15,0.37
					c0.1,0.1,0.22,0.15,0.37,0.15c0.15,0,0.27-0.05,0.37-0.15c0.1-0.1,0.15-0.22,0.15-0.37v-7.96c0-0.15-0.05-0.27-0.15-0.37
					c-0.1-0.1-0.22-0.15-0.37-0.15C57.98,54.35,57.86,54.4,57.76,54.49 M57.6,51.9c-0.13,0.11-0.2,0.27-0.2,0.48v0.17
					c0,0.21,0.06,0.37,0.19,0.48c0.13,0.11,0.3,0.16,0.54,0.16c0.23,0,0.41-0.05,0.53-0.16c0.12-0.11,0.18-0.27,0.18-0.48v-0.17
					c0-0.43-0.23-0.64-0.69-0.64C57.92,51.74,57.74,51.79,57.6,51.9"/>
			</defs>
			<clipPath id="SVGID_20_">
				<use xlink:href="#SVGID_19_"  style="overflow:visible;"/>
			</clipPath>
			
				<linearGradient id="SVGID_21_" gradientUnits="userSpaceOnUse" x1="-6744.8379" y1="1782.4252" x2="-6744.2939" y2="1782.4252" gradientTransform="matrix(0.5784 55.5293 55.5293 -0.5784 -95017.375 375610.375)">
				<stop  offset="0" style="stop-color:#ffffff"/>
				<stop  offset="0.9977" style="stop-color:#ffffff"/>
				<stop  offset="1" style="stop-color:#ffffff"/>
			</linearGradient>
			<polygon class="st6" points="58.84,51.72 58.96,63.34 57.41,63.36 57.28,51.74 			"/>
		</g>
		<g>
			<defs>
				<path id="SVGID_22_" d="M63.44,62.07c-0.51-0.32-0.91-0.75-1.2-1.31c-0.29-0.55-0.44-1.17-0.44-1.85c0-0.69,0.15-1.31,0.44-1.87
					c0.29-0.55,0.69-0.99,1.2-1.31c0.51-0.32,1.07-0.48,1.69-0.48c0.62,0,1.19,0.16,1.7,0.48c0.51,0.32,0.91,0.75,1.2,1.31
					c0.29,0.55,0.43,1.18,0.43,1.87c0,0.69-0.14,1.31-0.43,1.87c-0.29,0.55-0.69,0.99-1.2,1.3c-0.51,0.31-1.08,0.47-1.7,0.47
					C64.51,62.55,63.95,62.39,63.44,62.07 M62.9,54.9c-0.67,0.4-1.19,0.96-1.57,1.66c-0.38,0.7-0.57,1.49-0.57,2.35
					c0,0.86,0.19,1.65,0.57,2.35c0.38,0.7,0.91,1.25,1.57,1.65c0.67,0.4,1.41,0.6,2.23,0.6c0.82,0,1.56-0.2,2.23-0.6
					c0.67-0.4,1.19-0.95,1.57-1.65c0.38-0.7,0.57-1.49,0.57-2.35c0-0.86-0.19-1.65-0.57-2.35c-0.38-0.7-0.91-1.26-1.57-1.66
					c-0.67-0.4-1.41-0.6-2.23-0.6C64.32,54.3,63.57,54.5,62.9,54.9"/>
			</defs>
			<clipPath id="SVGID_23_">
				<use xlink:href="#SVGID_22_"  style="overflow:visible;"/>
			</clipPath>
			
				<linearGradient id="SVGID_24_" gradientUnits="userSpaceOnUse" x1="-6744.8379" y1="1782.321" x2="-6744.2939" y2="1782.321" gradientTransform="matrix(0.5784 55.5293 55.5293 -0.5784 -95004.6016 375610.25)">
				<stop  offset="0" style="stop-color:#ffffff"/>
				<stop  offset="0.9977" style="stop-color:#ffffff"/>
				<stop  offset="1" style="stop-color:#ffffff"/>
			</linearGradient>
			<polygon class="st7" points="69.51,54.2 69.61,63.51 60.76,63.61 60.66,54.3 			"/>
		</g>
		<g>
			<defs>
				<path id="SVGID_25_" d="M74.02,54.79c-0.58,0.33-1.03,0.74-1.34,1.24v-0.95c0-0.15-0.05-0.27-0.15-0.37
					c-0.1-0.1-0.22-0.15-0.37-0.15c-0.15,0-0.27,0.05-0.37,0.15c-0.1,0.1-0.15,0.22-0.15,0.37v7.75c0,0.15,0.05,0.27,0.15,0.37
					c0.1,0.1,0.22,0.15,0.37,0.15c0.15,0,0.27-0.05,0.37-0.15c0.1-0.1,0.15-0.22,0.15-0.37v-5.03c0-0.45,0.14-0.87,0.42-1.25
					c0.28-0.39,0.64-0.69,1.08-0.93c0.44-0.23,0.91-0.35,1.41-0.35c0.78,0,1.36,0.23,1.74,0.7c0.38,0.47,0.56,1.08,0.56,1.82v5.03
					c0,0.15,0.05,0.27,0.15,0.37c0.1,0.1,0.22,0.15,0.37,0.15c0.14,0,0.26-0.05,0.36-0.15c0.1-0.1,0.16-0.22,0.16-0.37v-5.09
					c0-1.04-0.25-1.87-0.75-2.5c-0.5-0.63-1.29-0.94-2.36-0.94C75.2,54.3,74.6,54.46,74.02,54.79"/>
			</defs>
			<clipPath id="SVGID_26_">
				<use xlink:href="#SVGID_25_"  style="overflow:visible;"/>
			</clipPath>
			
				<linearGradient id="SVGID_27_" gradientUnits="userSpaceOnUse" x1="-6744.8379" y1="1782.1682" x2="-6744.2939" y2="1782.1682" gradientTransform="matrix(0.5784 55.5293 55.5293 -0.5784 -94985.9609 375610.0625)">
				<stop  offset="0" style="stop-color:#ffffff"/>
				<stop  offset="0.9977" style="stop-color:#ffffff"/>
				<stop  offset="1" style="stop-color:#ffffff"/>
			</linearGradient>
			<polygon class="st8" points="78.92,54.22 79.01,63.34 71.64,63.42 71.54,54.3 			"/>
		</g>
		<g>
			<defs>
				<path id="SVGID_28_" d="M88.45,62.07c-0.51-0.32-0.91-0.75-1.2-1.31c-0.29-0.55-0.44-1.17-0.44-1.85c0-0.69,0.15-1.31,0.44-1.87
					c0.29-0.55,0.69-0.99,1.2-1.31c0.51-0.32,1.07-0.48,1.7-0.48c0.62,0,1.19,0.16,1.7,0.48c0.51,0.32,0.91,0.75,1.2,1.31
					c0.29,0.55,0.43,1.18,0.43,1.87c0,0.69-0.14,1.31-0.43,1.87c-0.29,0.55-0.69,0.99-1.2,1.3c-0.51,0.31-1.08,0.47-1.7,0.47
					C89.52,62.55,88.96,62.39,88.45,62.07 M87.91,54.9c-0.67,0.4-1.19,0.96-1.57,1.66c-0.38,0.7-0.57,1.49-0.57,2.35
					c0,0.86,0.19,1.65,0.57,2.35c0.38,0.7,0.91,1.25,1.57,1.65c0.67,0.4,1.41,0.6,2.23,0.6c0.82,0,1.56-0.2,2.23-0.6
					c0.67-0.4,1.19-0.95,1.57-1.65c0.38-0.7,0.57-1.49,0.57-2.35c0-0.86-0.19-1.65-0.57-2.35c-0.38-0.7-0.91-1.26-1.57-1.66
					c-0.67-0.4-1.41-0.6-2.23-0.6C89.33,54.3,88.58,54.5,87.91,54.9"/>
			</defs>
			<clipPath id="SVGID_29_">
				<use xlink:href="#SVGID_28_"  style="overflow:visible;"/>
			</clipPath>
			
				<linearGradient id="SVGID_30_" gradientUnits="userSpaceOnUse" x1="-6744.8379" y1="1781.9429" x2="-6744.2939" y2="1781.9429" gradientTransform="matrix(0.5784 55.5293 55.5293 -0.5784 -94958.5938 375609.7813)">
				<stop  offset="0" style="stop-color:#ffffff"/>
				<stop  offset="0.9977" style="stop-color:#ffffff"/>
				<stop  offset="1" style="stop-color:#ffffff"/>
			</linearGradient>
			<polygon class="st9" points="94.52,54.2 94.62,63.51 85.77,63.61 85.67,54.3 			"/>
		</g>
		<g>
			<defs>
				<path id="SVGID_31_" d="M98.16,51.21c-0.42,0.4-0.63,0.96-0.63,1.69v1.78h-1.26c-0.14,0-0.25,0.04-0.35,0.13
					c-0.09,0.09-0.14,0.2-0.14,0.35c0,0.13,0.05,0.24,0.14,0.34c0.09,0.1,0.21,0.15,0.35,0.15h1.26v7.18c0,0.15,0.05,0.27,0.15,0.37
					c0.1,0.1,0.22,0.15,0.37,0.15s0.27-0.05,0.37-0.15c0.1-0.1,0.15-0.22,0.15-0.37v-7.18h1.94c0.13,0,0.24-0.05,0.34-0.14
					c0.1-0.09,0.15-0.21,0.15-0.35c0-0.14-0.05-0.25-0.15-0.35c-0.1-0.09-0.21-0.14-0.34-0.14h-1.94v-1.78c0-0.43,0.1-0.76,0.3-1
					c0.2-0.24,0.49-0.36,0.86-0.36c0.15,0,0.35,0.03,0.61,0.1c0.15,0.06,0.28,0.09,0.38,0.09c0.11,0,0.22-0.05,0.31-0.14
					c0.09-0.09,0.14-0.21,0.14-0.35c0-0.22-0.14-0.38-0.42-0.48c-0.28-0.1-0.58-0.15-0.9-0.15C99.14,50.61,98.58,50.81,98.16,51.21"
					/>
			</defs>
			<clipPath id="SVGID_32_">
				<use xlink:href="#SVGID_31_"  style="overflow:visible;"/>
			</clipPath>
			
				<linearGradient id="SVGID_33_" gradientUnits="userSpaceOnUse" x1="-6744.8379" y1="1781.8154" x2="-6744.2939" y2="1781.8154" gradientTransform="matrix(0.5784 55.5293 55.5293 -0.5784 -94943.1641 375609.625)">
				<stop  offset="0" style="stop-color:#ffffff"/>
				<stop  offset="0.9977" style="stop-color:#ffffff"/>
				<stop  offset="1" style="stop-color:#ffffff"/>
			</linearGradient>
			<polygon class="st10" points="101.16,50.56 101.29,63.34 95.78,63.4 95.65,50.61 			"/>
		</g>
		<g>
			<defs>
				<path id="SVGID_34_" d="M115.55,55c-0.65,0.38-1.09,0.82-1.33,1.33c-0.21-0.62-0.55-1.1-1.04-1.42
					c-0.48-0.32-1.06-0.48-1.73-0.48c-0.59,0-1.15,0.16-1.68,0.47c-0.53,0.31-0.95,0.7-1.26,1.18v-1c0-0.15-0.05-0.27-0.15-0.37
					c-0.1-0.1-0.22-0.15-0.37-0.15c-0.15,0-0.27,0.05-0.37,0.15c-0.1,0.1-0.15,0.22-0.15,0.37v7.75c0,0.15,0.05,0.27,0.15,0.37
					c0.1,0.1,0.22,0.15,0.37,0.15c0.15,0,0.27-0.05,0.37-0.15c0.1-0.1,0.15-0.22,0.15-0.37v-4.9c0-0.45,0.13-0.87,0.39-1.25
					c0.26-0.39,0.6-0.69,1.02-0.93c0.42-0.23,0.87-0.35,1.34-0.35c0.74,0,1.28,0.23,1.63,0.7c0.35,0.47,0.52,1.08,0.52,1.82v4.9
					c0,0.15,0.05,0.27,0.15,0.37c0.1,0.1,0.22,0.15,0.37,0.15c0.15,0,0.27-0.05,0.37-0.15c0.1-0.1,0.15-0.22,0.15-0.37v-4.84
					c0-0.46,0.13-0.89,0.4-1.29c0.27-0.4,0.61-0.71,1.05-0.94c0.43-0.23,0.89-0.35,1.37-0.35c0.76,0,1.32,0.24,1.69,0.72
					c0.36,0.48,0.54,1.1,0.54,1.86v4.84c0,0.15,0.05,0.27,0.15,0.37c0.1,0.1,0.22,0.15,0.37,0.15c0.15,0,0.27-0.05,0.37-0.15
					c0.1-0.1,0.15-0.22,0.15-0.37v-4.9c0-1.05-0.25-1.89-0.73-2.53c-0.49-0.64-1.25-0.96-2.29-0.96
					C116.85,54.43,116.2,54.62,115.55,55"/>
			</defs>
			<clipPath id="SVGID_35_">
				<use xlink:href="#SVGID_34_"  style="overflow:visible;"/>
			</clipPath>
			
				<linearGradient id="SVGID_36_" gradientUnits="userSpaceOnUse" x1="-6744.8379" y1="1781.5826" x2="-6744.2939" y2="1781.5826" gradientTransform="matrix(0.5784 55.5293 55.5293 -0.5784 -94914.7344 375609.3125)">
				<stop  offset="0" style="stop-color:#ffffff"/>
				<stop  offset="0.9977" style="stop-color:#ffffff"/>
				<stop  offset="1" style="stop-color:#ffffff"/>
			</linearGradient>
			<polygon class="st11" points="120.53,54.3 120.62,63.34 107.48,63.48 107.38,54.43 			"/>
		</g>
		<g>
			<defs>
				<path id="SVGID_37_" d="M123.36,54.49c-0.1,0.1-0.15,0.22-0.15,0.37v7.96c0,0.15,0.05,0.27,0.15,0.37
					c0.1,0.1,0.22,0.15,0.37,0.15c0.15,0,0.27-0.05,0.37-0.15c0.1-0.1,0.15-0.22,0.15-0.37v-7.96c0-0.15-0.05-0.27-0.15-0.37
					c-0.1-0.1-0.22-0.15-0.37-0.15C123.58,54.35,123.46,54.4,123.36,54.49 M123.2,51.9c-0.13,0.11-0.2,0.27-0.2,0.48v0.17
					c0,0.21,0.06,0.37,0.19,0.48c0.13,0.11,0.31,0.16,0.54,0.16c0.23,0,0.41-0.05,0.53-0.16c0.12-0.11,0.18-0.27,0.18-0.48v-0.17
					c0-0.43-0.23-0.64-0.69-0.64C123.52,51.74,123.34,51.79,123.2,51.9"/>
			</defs>
			<clipPath id="SVGID_38_">
				<use xlink:href="#SVGID_37_"  style="overflow:visible;"/>
			</clipPath>
			
				<linearGradient id="SVGID_39_" gradientUnits="userSpaceOnUse" x1="-6744.8379" y1="1781.4332" x2="-6744.2939" y2="1781.4332" gradientTransform="matrix(0.5784 55.5293 55.5293 -0.5784 -94896.7031 375609.125)">
				<stop  offset="0" style="stop-color:#ffffff"/>
				<stop  offset="0.9977" style="stop-color:#ffffff"/>
				<stop  offset="1" style="stop-color:#ffffff"/>
			</linearGradient>
			<polygon class="st12" points="124.44,51.72 124.56,63.34 123,63.36 122.88,51.74 			"/>
		</g>
		<g>
			<defs>
				<path id="SVGID_40_" d="M129.33,54.79c-0.58,0.33-1.03,0.74-1.34,1.24v-0.95c0-0.15-0.05-0.27-0.15-0.37
					c-0.1-0.1-0.22-0.15-0.37-0.15c-0.15,0-0.27,0.05-0.37,0.15c-0.1,0.1-0.15,0.22-0.15,0.37v7.75c0,0.15,0.05,0.27,0.15,0.37
					c0.1,0.1,0.22,0.15,0.37,0.15c0.15,0,0.27-0.05,0.37-0.15c0.1-0.1,0.15-0.22,0.15-0.37v-5.03c0-0.45,0.14-0.87,0.42-1.25
					c0.28-0.39,0.64-0.69,1.08-0.93c0.44-0.23,0.91-0.35,1.41-0.35c0.78,0,1.36,0.23,1.74,0.7c0.37,0.47,0.56,1.08,0.56,1.82v5.03
					c0,0.15,0.05,0.27,0.15,0.37c0.1,0.1,0.22,0.15,0.37,0.15c0.14,0,0.26-0.05,0.36-0.15c0.1-0.1,0.16-0.22,0.16-0.37v-5.09
					c0-1.04-0.25-1.87-0.75-2.5c-0.5-0.63-1.29-0.94-2.36-0.94C130.5,54.3,129.91,54.46,129.33,54.79"/>
			</defs>
			<clipPath id="SVGID_41_">
				<use xlink:href="#SVGID_40_"  style="overflow:visible;"/>
			</clipPath>
			
				<linearGradient id="SVGID_42_" gradientUnits="userSpaceOnUse" x1="-6744.8379" y1="1781.3319" x2="-6744.2939" y2="1781.3319" gradientTransform="matrix(0.5784 55.5293 55.5293 -0.5784 -94884.2188 375609)">
				<stop  offset="0" style="stop-color:#ffffff"/>
				<stop  offset="0.9977" style="stop-color:#ffffff"/>
				<stop  offset="1" style="stop-color:#ffffff"/>
			</linearGradient>
			<polygon class="st13" points="134.23,54.22 134.32,63.34 126.95,63.42 126.85,54.3 			"/>
		</g>
		<g>
			<defs>
				<path id="SVGID_43_" d="M138.91,62.07c-0.48-0.32-0.85-0.75-1.12-1.31c-0.27-0.55-0.41-1.18-0.41-1.87
					c0-0.68,0.14-1.3,0.41-1.85c0.27-0.55,0.65-0.99,1.12-1.31c0.48-0.32,1.02-0.48,1.62-0.48c0.6,0,1.14,0.16,1.62,0.48
					c0.48,0.32,0.85,0.75,1.12,1.31c0.27,0.55,0.41,1.17,0.41,1.85c0,0.69-0.14,1.32-0.41,1.88c-0.27,0.56-0.65,0.99-1.12,1.31
					c-0.48,0.31-1.02,0.47-1.62,0.47C139.92,62.55,139.39,62.39,138.91,62.07 M143.75,50.69c-0.1,0.1-0.15,0.22-0.15,0.37v5.07
					c-0.3-0.54-0.74-0.98-1.31-1.32c-0.58-0.34-1.2-0.51-1.89-0.51c-0.75,0-1.43,0.2-2.05,0.6c-0.62,0.4-1.1,0.95-1.46,1.65
					c-0.36,0.7-0.54,1.49-0.54,2.35c0,0.88,0.18,1.67,0.54,2.37c0.36,0.7,0.84,1.25,1.46,1.65c0.62,0.4,1.31,0.6,2.07,0.6
					c0.69,0,1.32-0.18,1.89-0.55c0.57-0.37,1-0.82,1.29-1.35v1.21c0,0.15,0.05,0.27,0.15,0.37c0.1,0.1,0.22,0.15,0.37,0.15
					s0.27-0.05,0.37-0.15c0.1-0.1,0.15-0.22,0.15-0.37V51.06c0-0.15-0.05-0.27-0.15-0.37c-0.1-0.1-0.22-0.15-0.37-0.15
					S143.85,50.59,143.75,50.69"/>
			</defs>
			<clipPath id="SVGID_44_">
				<use xlink:href="#SVGID_43_"  style="overflow:visible;"/>
			</clipPath>
			
				<linearGradient id="SVGID_45_" gradientUnits="userSpaceOnUse" x1="-6744.8379" y1="1781.1805" x2="-6744.2939" y2="1781.1805" gradientTransform="matrix(0.5784 55.5293 55.5293 -0.5784 -94865.8906 375608.8125)">
				<stop  offset="0" style="stop-color:#ffffff"/>
				<stop  offset="0.9977" style="stop-color:#ffffff"/>
				<stop  offset="1" style="stop-color:#ffffff"/>
			</linearGradient>
			<polygon class="st14" points="144.64,50.46 144.78,63.51 136.36,63.6 136.22,50.54 			"/>
		</g>
	</g>
	<g>
		<path class="st15" d="M9.39,36.24V12.35c0-1.26,1.25-2.23,2.74-2.23c0.05,0,0.05,0,0.15,0c0,0,0,0,0.05,0h6.88
			c5.24,0,10.54,0.05,10.49,7.66c-0.01,1.74-1.04,4.35-2.91,4.66c2.99,1.54,5.04,4.25,5.04,7.33c0,5.97-4.79,8.71-10.68,8.71h-8.83
			c-0.05,0-0.05-0.04-0.05-0.04c-0.1,0-0.1,0.04-0.15,0.04C10.64,38.47,9.39,37.46,9.39,36.24z M14.93,21.1h4.29
			c2.19,0,3.94-1.5,3.94-3.28c0-2.44-1.75-2.67-3.94-2.67h-4.29V21.1z M14.93,33.72h6.24c2.84-0.04,4.83-1.61,4.83-3.96
			c0-2.31-1.99-3.71-4.83-3.75h-6.24V33.72z"/>
		<path class="st15" d="M55.08,27.56v8.59c0,1.27-1.08,2.32-2.39,2.32c-1.17,0-2.07-0.83-2.34-1.88c-1.71,1.18-3.74,1.88-5.99,1.88
			c-3.06,0-5.72-1.23-7.66-3.2c-1.94-2.02-3.06-4.73-3.06-7.71c0-3.02,1.13-5.74,3.06-7.71c1.94-2.02,4.59-3.29,7.66-3.29
			c2.25,0,4.28,0.75,5.99,1.93c0.27-1.1,1.17-1.93,2.34-1.93c1.31,0,2.39,1.05,2.39,2.37V27.56z M50.31,27.56
			c0-1.84-0.68-3.42-1.76-4.51c-1.08-1.18-2.61-1.8-4.19-1.8c-1.62,0-3.15,0.61-4.19,1.8c-1.08,1.1-1.71,2.67-1.71,4.51
			c0,1.8,0.63,3.38,1.71,4.51c1.04,1.1,2.57,1.71,4.19,1.71c1.58,0,3.11-0.61,4.19-1.71C49.63,30.93,50.31,29.36,50.31,27.56z"/>
		<path class="st15" d="M74.38,19.09c0,1.23-1.04,2.33-2.39,2.33c-1.04,0-2.14,0.01-2.91,0.58c-0.86,0.53-1.53,1.27-2.07,2.11
			c-1.08,1.41-1.62,3.07-1.85,3.69v8.34c0,1.27-1.13,2.33-2.48,2.33c-1.31,0-2.39-1.05-2.39-2.33v-17.3c0-1.27,1.08-2.28,2.39-2.28
			c1.35,0,2.48,1.01,2.48,2.28v0.31c0.27-0.31,0.63-0.66,0.95-0.88c1.49-0.97,3.42-1.78,5.67-1.74
			C73.13,16.53,74.38,17.82,74.38,19.09z"/>
		<path class="st15" d="M92.72,27.71c0.04-5.97,4.46-10.97,10.17-10.97c5.42,0,9.72,4.26,10.05,10.18c0,0.04,0,0.13,0,0.22
			c0,0.09,0,0.31-0.04,0.39c-0.13,1.05-1,1.76-2.17,1.76H97.48c0.21,1.01,0.67,2.15,1.42,2.9c0.88,1.05,2.54,1.84,4,1.98
			c1.5,0.13,3.29-0.26,4.34-1.1c0.88-0.97,2.59-0.83,3.13-0.13c0.54,0.61,0.96,1.93,0,2.85c-2.04,1.98-4.5,2.9-7.46,2.9
			C97.18,38.64,92.76,33.68,92.72,27.71z M97.27,25.56h11.8c-0.42-1.76-2.54-4.35-6.17-4.65C99.35,21.08,97.6,23.76,97.27,25.56z"/>
		<path class="st15" d="M131,19.56c0,1.18-1.04,2.24-2.39,2.24c-1.04,0-1.94,0.25-2.7,0.8c-0.86,0.51-1.53,1.23-2.07,2.03
			c-1.08,1.35-1.62,2.96-1.85,3.55v8.04c0,1.23-1.13,2.24-2.48,2.24c-1.31,0-2.39-1.02-2.39-2.24V19.56c0-1.23,1.08-2.2,2.39-2.2
			c1.35,0,2.48,0.97,2.48,2.2v0.3c0.27-0.3,0.63-0.63,0.95-0.85c1.49-0.93,3.42-1.69,5.68-1.65C129.97,17.36,131,18.34,131,19.56z"
			/>
		<path class="st15" d="M164.58,14.92h-6.76V36.1c0,1.31-1.02,2.33-2.34,2.33c-1.28,0-2.34-1.02-2.34-2.33V14.92h-6.72
			c-1.32,0-2.34-1.1-2.34-2.37c0-1.31,1.02-2.33,2.34-2.33h18.17c1.28,0,2.34,1.01,2.34,2.33
			C166.92,13.82,165.86,14.92,164.58,14.92z"/>
		<path class="st15" d="M164.74,27.61c0.04-6.02,4.49-11.08,10.24-11.08c5.45,0,9.78,4.3,10.11,10.28c0,0.04,0,0.13,0,0.22
			c0,0.09,0,0.31-0.04,0.4c-0.13,1.06-1.01,1.77-2.18,1.77h-13.34c0.21,1.02,0.67,2.17,1.43,2.92c0.88,1.06,2.56,1.86,4.03,1.99
			c1.51,0.13,3.31-0.27,4.36-1.11c0.88-0.97,2.6-0.84,3.15-0.13c0.55,0.62,0.97,1.95,0,2.88c-2.06,1.99-4.53,2.92-7.51,2.92
			C169.23,38.64,164.79,33.63,164.74,27.61z M169.32,25.44h11.87c-0.42-1.77-2.56-4.39-6.21-4.7
			C171.42,20.92,169.65,23.62,169.32,25.44z"/>
		<path class="st15" d="M187.78,27.55c0-6.1,4.87-10.97,10.67-11.01c2.52,0,4.87,0.97,6.68,2.41c0.97,0.79,1.13,2.28,0.46,3.25
			c-0.84,1.05-2.18,1.23-3.15,0.44c-1.09-0.83-2.44-1.4-3.99-1.4c-3.4,0-6.21,2.94-6.21,6.32s2.81,6.27,6.21,6.27
			c1.51,0,2.9-0.57,3.99-1.4c0.92-0.75,2.31-0.57,3.15,0.48c0.67,0.97,0.5,2.37-0.46,3.25c-1.81,1.36-4.16,2.33-6.68,2.33
			C192.65,38.47,187.78,33.56,187.78,27.55z"/>
		<path class="st15" d="M214.71,36.15c0,1.31-1.13,2.33-2.52,2.33c-1.13,0-2.07-0.76-2.39-1.73c-0.05-0.17-0.09-0.38-0.09-0.59
			V11.19c0-1.31,1.13-2.33,2.48-2.33c1.4,0,2.52,1.01,2.52,2.33v7.36c1.44-0.72,4.81-2.02,6.57-2.02c5.45,0,6.86,4.98,6.86,10.05
			v9.56c0,1.31-1.08,2.33-2.48,2.33c-1.4,0-2.48-1.02-2.48-2.33v-9.56c0-2.5-0.22-5.32-2.93-5.36c-2.66,0.04-5.5,2.87-5.55,5.36
			V36.15z"/>
		<path class="st15" d="M89.08,34.45c-0.49-0.99-1.63-0.59-2.97-0.34c-0.02,0.01-0.04,0.01-0.07,0.01c-0.45,0.07-0.79-0.1-1.04-0.33
			c-0.09-0.09-0.17-0.18-0.24-0.28V21.98h2.41c1.35,0,2.52-1.06,2.52-2.33c0-1.32-1.17-2.33-2.52-2.33h-2.41v-2.81
			c0-1.32-1.08-2.33-2.48-2.33c-1.4,0-2.52,1.02-2.52,2.33v2.81h-1.62c-1.4,0-2.47,1.01-2.47,2.33c0,1.27,1.08,2.33,2.47,2.33h1.62
			v11.8c0,1.64,0.92,3.1,2.29,3.95c0.13,0.11,0.28,0.2,0.48,0.28c0.1,0.04,0.2,0.07,0.29,0.1c0.02,0.01,0.03,0.02,0.05,0.02
			c0.49,0.2,1.03,0.32,1.59,0.34c0.03,0,0.06,0,0.09,0.01c1.84,0.14,3.37-0.51,4.2-1.1C89.85,36.58,89.58,35.45,89.08,34.45z"/>
	</g>
</g>
</svg>
